<svg xmlns="http://www.w3.org/2000/svg" viewBox="0 0 64 64" role="img" aria-label="Focusea">
  <defs>
    <linearGradient id="bg" x1="6" y1="5" x2="58" y2="59" gradientUnits="userSpaceOnUse">
      <stop stop-color="#073146"/>
      <stop offset=".55" stop-color="#031826"/>
      <stop offset="1" stop-color="#050817"/>
    </linearGradient>
    <linearGradient id="mark" x1="19" y1="13" x2="45" y2="50" gradientUnits="userSpaceOnUse">
      <stop stop-color="#ffffff"/>
      <stop offset=".45" stop-color="#d7fffa"/>
      <stop offset="1" stop-color="#42efd8"/>
    </linearGradient>
    <linearGradient id="route" x1="9" y1="48" x2="55" y2="30" gradientUnits="userSpaceOnUse">
      <stop stop-color="#6dfff0"/>
      <stop offset=".5" stop-color="#20d8ff"/>
      <stop offset="1" stop-color="#7b72ff"/>
    </linearGradient>
  </defs>
  <rect width="64" height="64" rx="15" fill="#020713"/>
  <rect x="4" y="4" width="56" height="56" rx="12" fill="url(#bg)"/>
  <circle cx="32" cy="32" r="23" fill="none" stroke="#55ffe8" stroke-width="1.7" opacity=".48"/>
  <circle cx="32" cy="32" r="12" fill="none" stroke="#7b72ff" stroke-width="1.3" opacity=".55"/>
  <path d="M32 32l21-13" fill="none" stroke="#55ffe8" stroke-linecap="round" stroke-width="2.8"/>
  <path d="M20 15h23M20 15v32M20 29h17" fill="none" stroke="#020713" stroke-linecap="round" stroke-linejoin="round" stroke-width="8" opacity=".7"/>
  <path d="M20 14h23M20 14v33M20 28h17" fill="none" stroke="url(#mark)" stroke-linecap="round" stroke-linejoin="round" stroke-width="5.5"/>
  <path d="M39 28h10l-4-4M49 28l-4 4" fill="none" stroke="#55ffe8" stroke-linecap="round" stroke-linejoin="round" stroke-width="3.2"/>
  <path d="M9 49c8-6 16-7 24-3 8 4 15 0 22-9" fill="none" stroke="url(#route)" stroke-linecap="round" stroke-width="3.8"/>
</svg>
