<svg xmlns="http://www.w3.org/2000/svg" viewBox="0 0 64 64" role="img" aria-label="Focusea">
  <defs>
    <linearGradient id="plate" x1="6" y1="5" x2="59" y2="59" gradientUnits="userSpaceOnUse">
      <stop stop-color="#07324a"/>
      <stop offset=".5" stop-color="#041927"/>
      <stop offset="1" stop-color="#050817"/>
    </linearGradient>
    <linearGradient id="mark" x1="17" y1="13" x2="46" y2="49" gradientUnits="userSpaceOnUse">
      <stop stop-color="#ffffff"/>
      <stop offset=".45" stop-color="#d8fffb"/>
      <stop offset="1" stop-color="#45f1dc"/>
    </linearGradient>
    <linearGradient id="route" x1="12" y1="46" x2="53" y2="35" gradientUnits="userSpaceOnUse">
      <stop stop-color="#6dfff0"/>
      <stop offset=".5" stop-color="#20d8ff"/>
      <stop offset="1" stop-color="#7b72ff"/>
    </linearGradient>
  </defs>
  <rect width="64" height="64" rx="15" fill="#020713"/>
  <rect x="4" y="4" width="56" height="56" rx="12" fill="url(#plate)"/>
  <circle cx="32" cy="32" r="23" fill="none" stroke="#55ffe8" stroke-width="1.4" opacity=".58"/>
  <circle cx="32" cy="32" r="16" fill="none" stroke="#25d9ff" stroke-width="1.2" opacity=".65"/>
  <circle cx="32" cy="32" r="8" fill="none" stroke="#897dff" stroke-width="1.1" opacity=".68"/>
  <path d="M32 32l21-13" fill="none" stroke="#55ffe8" stroke-linecap="round" stroke-width="2.2"/>
  <circle cx="32" cy="32" r="2.8" fill="#55ffe8"/>
  <path d="M19 18h22M19 18v29M19 30h15" fill="none" stroke="#020713" stroke-linecap="round" stroke-linejoin="round" stroke-width="8" opacity=".74"/>
  <path d="M19 17h22M19 17v30M19 30h15" fill="none" stroke="url(#mark)" stroke-linecap="round" stroke-linejoin="round" stroke-width="4.8"/>
  <path d="M35 30h11l-5-4M46 30l-5 4" fill="none" stroke="#55ffe8" stroke-linecap="round" stroke-linejoin="round" stroke-width="3"/>
  <path d="M13 46c7-5 14-6 22-3 8 4 14 2 19-7" fill="none" stroke="#00101c" stroke-linecap="round" stroke-width="5" opacity=".58"/>
  <path d="M13 46c7-5 14-6 22-3 8 4 14 2 19-7" fill="none" stroke="url(#route)" stroke-linecap="round" stroke-width="2.8"/>
  <circle cx="13" cy="46" r="2.6" fill="#6dfff0"/>
  <circle cx="35" cy="43" r="2.3" fill="#20d8ff"/>
  <circle cx="54" cy="36" r="2.6" fill="#7b72ff"/>
</svg>
