<svg xmlns="http://www.w3.org/2000/svg" viewBox="0 0 64 64" role="img" aria-label="Focusea">
  <defs>
    <linearGradient id="bg" x1="6" y1="5" x2="58" y2="59" gradientUnits="userSpaceOnUse">
      <stop stop-color="#06293e"/>
      <stop offset=".5" stop-color="#041522"/>
      <stop offset="1" stop-color="#040817"/>
    </linearGradient>
    <linearGradient id="mark" x1="18" y1="14" x2="46" y2="48" gradientUnits="userSpaceOnUse">
      <stop stop-color="#b9fff8"/>
      <stop offset=".48" stop-color="#57efe6"/>
      <stop offset="1" stop-color="#24bdd5"/>
    </linearGradient>
    <linearGradient id="route" x1="18" y1="48" x2="48" y2="35" gradientUnits="userSpaceOnUse">
      <stop stop-color="#67fff0"/>
      <stop offset=".5" stop-color="#35dfff"/>
      <stop offset="1" stop-color="#6a70ff"/>
    </linearGradient>
  </defs>
  <rect width="64" height="64" rx="15" fill="#020713"/>
  <rect x="4" y="4" width="56" height="56" rx="12" fill="url(#bg)"/>
  <circle cx="32" cy="31" r="23" fill="none" stroke="#47f3ed" stroke-width="1.4" opacity=".44"/>
  <circle cx="32" cy="31" r="15" fill="none" stroke="#35dfff" stroke-width="1.1" opacity=".45"/>
  <path d="M32 31l18-11" fill="none" stroke="#47f3ed" stroke-linecap="round" stroke-width="2"/>
  <circle cx="32" cy="31" r="2.6" fill="#dffffc"/>
  <path d="M20 47V26c0-6 5-11 11-11h18c-2 5-6 7-12 7h-7c-2 0-4 2-4 4v8" fill="none" stroke="#02101d" stroke-linecap="round" stroke-linejoin="round" stroke-width="9" opacity=".68"/>
  <path d="M20 47V26c0-6 5-11 11-11h18c-2 5-6 7-12 7h-7c-2 0-4 2-4 4v8" fill="none" stroke="url(#mark)" stroke-linecap="round" stroke-linejoin="round" stroke-width="5.8"/>
  <path d="M20 47c9-8 18-12 28-13" fill="none" stroke="#02101d" stroke-linecap="round" stroke-width="7" opacity=".65"/>
  <path d="M20 47c9-8 18-12 28-13" fill="none" stroke="url(#route)" stroke-linecap="round" stroke-width="3.6"/>
  <circle cx="20" cy="47" r="4" fill="#67fff0"/>
  <circle cx="44" cy="35" r="3.3" fill="#35dfff"/>
</svg>
